<svg width="35" height="30" viewBox="0 0 35 30" fill="none" xmlns="http://www.w3.org/2000/svg">
<path d="M17.5008 0.00960942C22.5317 0.00960942 27.5626 0.0223699 32.5943 0.0016341C34.0432 -0.00474616 35.0032 1.19713 35 2.38067C34.9816 10.7938 34.9816 19.2062 35 27.6194C35.0024 28.8181 34.032 30.0024 32.5951 30C22.5333 29.9856 12.4707 29.9856 2.40884 30C0.960028 30.0024 7.99547e-06 28.8053 0.00240405 27.621C0.0207738 19.2222 0.0223712 10.8225 7.99545e-06 2.42294C-0.00318675 1.2075 0.951242 -0.00793628 2.44718 3.90352e-05C7.46452 0.0263576 12.4827 0.00960942 17.5008 0.00960942ZM32.4554 23.7306C32.465 23.603 32.4745 23.5416 32.4745 23.481C32.4674 16.8623 32.4602 10.2443 32.4498 3.62562C32.449 2.91183 32.0592 2.54736 31.3157 2.54736C22.1052 2.54736 12.8956 2.54736 3.68514 2.54736C2.9192 2.54736 2.52705 2.93336 2.52705 3.69341C2.52625 10.2451 2.52705 16.7977 2.53024 23.3494C2.53024 23.4411 2.46475 23.5615 2.60851 23.6365C2.73471 23.485 2.8609 23.335 2.98629 23.1835C6.0772 19.4598 9.16492 15.7337 12.2606 12.0141C13.1072 10.9972 14.2022 10.9749 15.1015 11.9399C16.4801 13.4185 17.8434 14.9107 19.2308 16.3813C20.0007 17.198 20.5909 17.2148 21.4447 16.5026C21.9039 16.119 22.3536 15.7234 22.8216 15.3509C23.5349 14.7839 24.1778 14.8333 24.792 15.4929C26.5595 17.3902 28.3238 19.2915 30.0897 21.1905C30.8636 22.0231 31.6383 22.8541 32.4554 23.7314V23.7306Z" fill="white"/>
<path d="M29.9991 8.5C29.9991 10.4212 28.214 11.9925 26.0214 12C23.8117 12.0074 22.0026 10.4309 22 8.49403C21.9974 6.56236 23.8065 4.99331 26.0282 5.00002C28.2259 5.00674 30 6.57057 30 8.49925L29.9991 8.5Z" fill="white"/>
</svg>
