<svg width="35" height="46" viewBox="0 0 35 46" fill="none" xmlns="http://www.w3.org/2000/svg">
<path d="M0.0137753 22.7807C0.0137753 17.465 -0.0254941 12.1487 0.0285725 6.83295C0.0621507 3.50918 2.5236 0.727134 5.75849 0.130167C6.21664 0.0458622 6.67876 0.015672 7.14488 0.015672C11.555 0.0179505 15.9657 0.0441533 20.3753 0.000292165C21.6546 -0.0122396 22.724 0.378523 23.7046 1.14296C24.6875 1.90911 25.5702 2.78234 26.4518 3.65899C28.2149 5.41116 29.986 7.15478 31.7423 8.91379C32.6068 9.77962 33.4446 10.6711 34.1406 11.6856C34.7205 12.5309 35.0023 13.4452 35 14.4881C34.9823 22.4811 34.9932 30.4735 34.9892 38.4665C34.9875 41.7208 32.9364 44.4311 29.8193 45.322C29.2063 45.4974 28.5786 45.5754 27.9429 45.576C20.991 45.5783 14.0387 45.5783 7.08683 45.576C3.59697 45.5749 0.706397 43.1306 0.11451 39.6884C0.0484918 39.3044 0.0120679 38.9188 0.0120679 38.5297C0.0120679 33.2801 0.0120679 28.031 0.0120679 22.7813L0.0137753 22.7807ZM3.51957 22.8018H3.52127C3.52127 28.0612 3.51786 33.3199 3.52298 38.5793C3.52469 40.5229 5.06303 42.0574 7.01227 42.0586C14.0028 42.0631 20.9928 42.0631 27.9833 42.0603C29.9411 42.0597 31.4828 40.52 31.484 38.5616C31.4874 30.9668 31.4857 23.3726 31.4845 15.7778C31.4845 14.974 31.1226 14.4881 30.3514 14.246C29.747 14.0564 29.121 14.0359 28.4966 14.0336C26.5901 14.0262 24.6835 14.0319 22.7775 14.029C21.773 14.0273 21.0132 13.2731 21.0087 12.2751C21.0058 11.6013 21.015 10.9268 21.0064 10.253C20.9859 8.65917 21.0639 7.06364 20.9546 5.47097C20.9256 5.04375 20.855 4.6228 20.649 4.24172C20.3957 3.77349 20.0179 3.49779 19.4595 3.5183C19.1847 3.52855 18.9098 3.52001 18.6343 3.52001C14.7933 3.52001 10.9517 3.52058 7.11073 3.51887C6.10566 3.51887 5.2349 3.8464 4.52407 4.56641C3.76543 5.33483 3.51046 6.27414 3.51331 7.33763C3.5281 12.4922 3.52014 17.6473 3.52014 22.8018H3.51957Z" fill="white"/>
<path d="M17.397 31.5626C20.3371 31.5626 23.2766 31.5626 26.2167 31.5626C27.1711 31.5626 27.9133 32.2069 28.0089 33.1154C28.1034 34.0143 27.5217 34.8135 26.6162 35.0174C26.4888 35.0459 26.3533 35.0487 26.2213 35.0487C20.4549 35.0499 14.6891 35.0431 8.9228 35.0573C8.2262 35.059 7.62179 34.9343 7.1921 34.3498C6.77323 33.7796 6.7129 33.153 7.03047 32.5264C7.34406 31.9073 7.85627 31.5621 8.57678 31.5626C11.5169 31.5661 14.4564 31.5638 17.3965 31.5638V31.5621L17.397 31.5626Z" fill="white"/>
<path d="M17.4284 17.5413C20.3679 17.5413 23.3068 17.5379 26.2463 17.5436C26.9851 17.5453 27.5417 17.8831 27.8507 18.561C28.1529 19.2246 28.0601 19.8608 27.5963 20.4214C27.244 20.8469 26.7716 21.04 26.2173 21.0394C23.7234 21.0383 21.2301 21.0394 18.7362 21.0405C15.3704 21.0417 12.0041 21.0422 8.63828 21.0457C7.64288 21.0468 6.8501 20.2824 6.84042 19.3032C6.83075 18.3229 7.61101 17.5408 8.60982 17.5402C11.5493 17.5379 14.4883 17.5396 17.4278 17.5396V17.5419L17.4284 17.5413Z" fill="white"/>
<path d="M15.6607 28.0464C13.3085 28.0464 10.9569 28.0464 8.6047 28.0464C7.62808 28.0464 6.84896 27.2785 6.8427 26.3079C6.83587 25.3395 7.61101 24.5466 8.58478 24.5461C13.2886 24.5426 17.9929 24.5421 22.6967 24.5449C23.6978 24.5449 24.4166 25.1971 24.5174 26.174C24.6044 27.0171 24.0063 27.8015 23.1111 28.0105C22.9927 28.0379 22.8675 28.0436 22.7451 28.0436C20.3838 28.0453 18.022 28.0447 15.6607 28.0447V28.0458V28.0464Z" fill="white"/>
</svg>
