<svg width="94" height="78" viewBox="0 0 94 78" fill="none" xmlns="http://www.w3.org/2000/svg">
<path d="M14.5142 30.2216C17.6534 30.2216 19.7765 31.249 21.603 33.6119H27.1849C24.8448 28.4295 20.1418 25.3931 14.4001 25.3931C6.76342 25.3931 0.530823 31.6371 0.530823 39.2737C0.530823 46.9104 6.84333 53.3256 14.7311 53.3256C20.2788 53.3256 25.0617 50.255 27.1849 45.3237H21.3062C19.0802 47.6295 17.2196 48.4971 14.6284 48.4971C9.66284 48.4971 5.57626 44.3762 5.57626 39.2966C5.57626 34.2169 9.41171 30.2102 14.5256 30.2102L14.5142 30.2216Z" fill="white"/>
<path d="M48.2115 32.6301H42.3327L35.3239 41.9448V32.6301H30.4725V52.8575H35.3239V43.5543L42.3327 52.8575H48.6567L40.1411 42.6753L48.2115 32.6301Z" fill="white"/>
<path d="M88.8145 40.4494H79.8994V32.6301H75.048V52.8575H79.8994V44.867H88.8145V52.8575H93.6659V32.6301H88.8145V40.4494Z" fill="white"/>
<path d="M66.6468 35.3355C64.9688 33.1096 62.9597 32.1622 60.0375 32.1622C54.0446 32.1622 49.7411 36.6483 49.7411 42.8238C49.7411 48.9993 54.0104 53.337 59.9233 53.337C62.8113 53.337 64.7062 52.4581 66.6468 50.2322V52.8576H71.0987V32.6302H66.6468V35.3355ZM60.6197 48.8852C57.081 48.8852 54.6268 46.4766 54.6268 42.938C54.6268 39.3993 57.0696 36.6254 60.4713 36.6254C63.8729 36.6254 66.4984 39.1824 66.4984 42.8352C66.4984 46.488 64.1241 48.8966 60.6197 48.8966V48.8852Z" fill="white"/>
<path d="M7.23138 12.0483C7.23138 9.37719 7.23138 6.70608 7.23138 4.03496C7.23138 3.761 7.27704 3.54412 7.48252 3.35006C8.25874 2.59667 9.03496 1.82045 9.78835 1.04423C10.0052 0.827342 10.2221 0.747437 10.5189 0.747437C15.8611 0.747437 21.192 0.747437 26.5342 0.747437C26.9908 0.747437 27.1392 0.838757 27.1278 1.3296C27.0935 2.83639 27.1164 4.33175 27.1392 5.83854C27.1392 6.24948 27.0022 6.38646 26.6027 6.4207C25.0274 6.54627 23.4407 6.50061 21.854 6.50061C19.2856 6.50061 16.7173 6.50061 14.1375 6.50061C12.9047 6.50061 12.9047 6.50061 12.9047 7.75626C12.9047 11.5689 12.9275 15.3929 12.9047 19.2055C12.8932 20.9977 13.0759 20.5982 11.4549 20.6895C10.1765 20.758 8.88656 20.6438 7.60808 20.6324C7.2428 20.6324 7.25421 20.4155 7.2428 20.1644C7.2428 19.08 7.2428 17.9841 7.2428 16.8997C7.2428 15.2788 7.2428 13.6578 7.2428 12.0369L7.23138 12.0483Z" fill="white"/>
<path d="M67.1146 6.34142V0.827965C67.2174 0.690984 67.4 0.748059 67.5712 0.748059C72.9249 0.748059 78.2785 0.748059 83.6436 0.736644C83.9404 0.736644 84.1801 0.79372 84.3856 1.0106C85.1504 1.78683 85.9152 2.56305 86.6914 3.31644C86.9083 3.53332 86.9768 3.76163 86.9768 4.05842C86.9768 9.41206 86.9768 14.7657 86.9768 20.1308C86.9768 20.4504 86.9311 20.6444 86.5544 20.6787C84.9335 20.8043 83.3125 20.633 81.6916 20.6216C81.3948 20.6216 81.3377 20.439 81.3377 20.1993C81.3377 19.6057 81.3263 19.0121 81.3263 18.4185C81.3263 14.663 81.2921 10.9074 81.3035 7.15189C81.3035 6.59255 81.1094 6.45557 80.5729 6.45557C76.1667 6.45557 71.7605 6.52406 67.3543 6.39849C67.2973 6.39849 67.2402 6.37566 67.1032 6.35283L67.1146 6.34142Z" fill="white"/>
<path d="M7.34541 58.0744C9.04625 58.0744 10.7585 58.0744 12.4708 58.0744C12.8931 58.0744 12.8817 58.2913 12.8817 58.6109C12.8817 62.9144 12.9045 67.2293 12.8931 71.5327C12.8931 72.1149 13.0301 72.3203 13.6465 72.3203C17.8815 72.2975 22.105 72.3203 26.34 72.3203C26.5911 72.3203 26.8537 72.2633 27.1276 72.4345C27.1276 74.1353 27.1276 75.8476 27.1276 77.5598C27.1276 77.8338 27.0249 77.948 26.7509 77.948C26.2943 77.948 25.8377 77.9936 25.3926 77.9936C20.5069 77.9936 15.6327 77.9708 10.7471 77.9708C10.3247 77.9708 10.0051 77.8566 9.70832 77.537C9.012 76.8065 8.29286 76.0987 7.57371 75.4024C7.34541 75.1855 7.24268 74.9458 7.24268 74.6262C7.25409 69.3068 7.25409 63.9874 7.26551 58.6794C7.26551 58.4853 7.20843 58.2799 7.36824 58.0744H7.34541Z" fill="white"/>
<path d="M86.8625 58.0632C87.0109 58.2344 86.9538 58.4171 86.9538 58.5883C86.9538 63.9077 86.9539 69.2271 86.9767 74.5351C86.9767 74.9232 86.8739 75.2086 86.6 75.4825C85.858 76.1903 85.1389 76.9208 84.4197 77.6628C84.1914 77.8911 83.9517 77.9938 83.6321 77.9938C78.2784 77.971 72.9248 78.0509 67.5597 77.9368C67.183 77.9368 67.0689 77.834 67.0689 77.4231C67.0917 75.962 67.0803 74.5008 67.0461 73.0397C67.0346 72.469 67.1716 72.2635 67.7994 72.2635C72.0458 72.2977 76.3036 72.2863 80.55 72.2863C81.292 72.2863 81.3148 72.2521 81.3148 71.5215C81.3148 67.2523 81.3148 62.9831 81.292 58.7139C81.292 58.2002 81.4176 58.029 81.9541 58.0404C83.575 58.0746 85.1959 58.0518 86.8511 58.0518L86.8625 58.0632Z" fill="white"/>
</svg>
