<svg width="36" height="33" viewBox="0 0 36 33" fill="none" xmlns="http://www.w3.org/2000/svg">
<path d="M14.3616 32.9999C10.4243 32.9999 6.48579 32.9999 2.54845 32.9999C0.8879 32.9999 0.00470411 32.125 0.00352808 30.4714C0 26.0311 0 21.5895 0 17.1491C0 15.4099 0.852619 14.5714 2.60255 14.5714C10.4584 14.5714 18.3143 14.5714 26.1701 14.5714C27.806 14.5714 28.6762 15.4275 28.6774 17.0587C28.6809 21.5578 28.6798 26.0581 28.6774 30.5572C28.6774 32.0944 27.7707 32.9987 26.2336 32.9999C22.2763 33.0022 18.319 32.9999 14.3616 32.9999ZM17.6157 27.1737H2.96829V29.2841H17.6157V27.1737ZM22.4292 22.7052C22.996 22.7052 23.5629 22.7111 24.1297 22.704C24.7283 22.6958 25 22.4456 25.007 21.8584C25.02 20.7263 25.02 19.5942 25.0094 18.4621C25.0035 17.8573 24.7542 17.5919 24.1603 17.5837C23.0078 17.5684 21.8541 17.5707 20.7004 17.5837C20.1065 17.5907 19.8654 17.8502 19.8607 18.4633C19.8525 19.5954 19.8513 20.7275 19.8607 21.8596C19.8654 22.4539 20.1206 22.6946 20.7286 22.7028C21.2955 22.7111 21.8623 22.704 22.4292 22.7052Z" fill="white"/>
<path d="M7.28666 5.68829C16.4044 8.61722 25.461 11.5274 34.5705 14.4528C34.233 15.5097 33.9037 16.5432 33.572 17.5743C32.9511 19.5062 32.3254 21.4357 31.7092 23.3699C31.4599 24.1509 31.0283 24.7475 30.1451 25.0364C30.1451 24.1415 30.1451 23.3065 30.1451 22.4715C30.1451 20.7311 30.0769 18.9859 30.1592 17.249C30.2839 14.6383 28.3199 13.1222 26.0384 13.1468C19.2222 13.2197 12.4047 13.1739 5.5873 13.1739C5.37562 13.1739 5.16393 13.1739 4.89697 13.1739C5.69549 10.6724 6.47755 8.22263 7.28666 5.68829Z" fill="white"/>
<path d="M35.6653 10.9507C26.5688 8.02881 17.5087 5.1175 8.45209 2.20853C8.88369 0.26609 9.98445 -0.377476 11.8132 0.208545C19.2221 2.58434 26.6299 4.96013 34.0377 7.33827C35.9029 7.93721 36.4227 9.07167 35.6642 10.9507H35.6653Z" fill="white"/>
</svg>
