<svg width="312" height="117" viewBox="0 0 312 117" fill="none" xmlns="http://www.w3.org/2000/svg">
<g clip-path="url(#clip0_2_4)">
<path d="M129.38 52.31C126.85 48.96 123.83 47.53 119.43 47.53C110.41 47.53 103.92 54.29 103.92 63.59C103.92 72.89 110.35 79.43 119.26 79.43C123.6 79.43 126.46 78.11 129.38 74.76V78.72H136.09V48.26H129.38V52.33V52.31ZM120.31 72.71C114.98 72.71 111.29 69.08 111.29 63.75C111.29 58.42 114.97 54.24 120.09 54.24C125.21 54.24 129.16 58.09 129.16 63.59C129.16 69.09 125.59 72.72 120.31 72.72V72.71Z" fill="white"/>
<path d="M162.49 62.87C164.58 61.99 166.06 59.79 166.06 57.59C166.06 51.76 161.77 48.24 154.57 48.24H142.03V78.7H156.49C162.54 78.7 167.05 74.52 167.05 68.86C167.05 66.22 165.29 63.91 162.49 62.87ZM149.35 54.9H154.52C157.43 54.9 159.08 55.89 159.08 57.59C159.08 59.29 157.43 60.34 154.52 60.34H149.35V54.9ZM156 72.06H149.35V65.68H156C158.2 65.68 159.68 66.94 159.68 68.87C159.68 70.8 158.2 72.06 156 72.06Z" fill="white"/>
<path d="M20.4 57.04C23.53 56.05 25.57 52.97 25.57 49.29C25.57 42.69 20.18 37.36 13.42 37.36C6.66 37.36 1.27 42.69 1.27 49.29H8.58C8.58 46.71 10.72 44.56 13.42 44.56C16.12 44.56 18.26 46.7 18.26 49.29C18.26 52.37 15.62 53.96 10.67 53.96V60.56C16.72 60.56 19.25 62.27 19.25 66.33C19.25 69.57 16.67 72.16 13.42 72.16C10.17 72.16 7.59 69.58 7.59 66.33H0C0 73.53 5.99 79.42 13.42 79.42C20.85 79.42 26.84 73.54 26.84 66.33C26.84 62.43 23.98 58.3 20.41 57.04H20.4Z" fill="white"/>
<path d="M85.67 47.53C81.55 47.53 78.03 49.01 75.66 51.82V48.25H68.95V88.89H76.26V75.86C79.12 78.33 81.92 79.43 85.61 79.43C94.41 79.43 100.84 72.61 100.84 63.37C100.84 54.13 94.46 47.53 85.66 47.53H85.67ZM84.79 72.72C79.73 72.72 75.83 68.76 75.83 63.59C75.83 58.42 79.62 54.24 84.57 54.24C89.52 54.24 93.48 58.14 93.48 63.53C93.48 68.92 89.69 72.71 84.79 72.71V72.72Z" fill="white"/>
<path d="M50.59 48.24H44.21L34.04 72.05H29.37V85.96H34.65L36.19 78.7H58.68L60.22 85.96H65.44V72.05H60.77L50.6 48.24H50.59ZM41.63 72.05L47.4 58.3L53.17 72.05H41.62H41.63Z" fill="white"/>
<path d="M192.47 44.41C197.2 44.41 200.39 45.95 203.14 49.52H211.55C208.03 41.71 200.94 37.15 192.3 37.15C180.81 37.15 171.4 46.55 171.4 58.05C171.4 69.55 180.91 79.22 192.79 79.22C201.15 79.22 208.35 74.6 211.54 67.18H202.69C199.34 70.64 196.53 71.96 192.63 71.96C185.15 71.96 178.99 65.75 178.99 58.1C178.99 50.45 184.76 44.41 192.46 44.41H192.47Z" fill="url(#paint0_linear_2_4)"/>
<path d="M243.22 48.04H234.37L223.81 62.06V48.04H216.49V78.5H223.81V64.48L234.37 78.5H243.88L231.07 63.16L243.22 48.04Z" fill="url(#paint1_linear_2_4)"/>
<path d="M304.36 59.81H290.95V48.04H283.63V78.5H290.95V66.46H304.36V78.5H311.68V48.04H304.36V59.81Z" fill="url(#paint2_linear_2_4)"/>
<path d="M270.99 52.11C268.46 48.76 265.44 47.33 261.04 47.33C252.02 47.33 245.53 54.09 245.53 63.39C245.53 72.69 251.96 79.23 260.87 79.23C265.21 79.23 268.07 77.91 270.99 74.56V78.52H277.7V48.06H270.99V52.13V52.11ZM261.92 72.51C256.59 72.51 252.9 68.88 252.9 63.55C252.9 58.22 256.58 54.04 261.7 54.04C266.82 54.04 270.77 57.89 270.77 63.39C270.77 68.89 267.2 72.52 261.92 72.52V72.51Z" fill="url(#paint3_linear_2_4)"/>
<path d="M181.49 17.03C181.49 13.01 181.49 8.99 181.49 4.97C181.49 4.56 181.56 4.23 181.87 3.93C183.04 2.79 184.2 1.63 185.35 0.46C185.67 0.13 186 0.01 186.45 0.02C194.49 0.02 202.53 0.02 210.57 0C211.25 0 211.48 0.13 211.46 0.88C211.4 3.14 211.44 5.41 211.48 7.67C211.49 8.29 211.27 8.5 210.67 8.54C208.29 8.73 205.91 8.65 203.53 8.66C199.66 8.68 195.79 8.66 191.91 8.66C190.06 8.66 190.05 8.67 190.05 10.56C190.05 16.31 190.08 22.06 190.03 27.8C190.01 30.49 190.29 29.9 187.84 30.04C185.91 30.15 183.97 29.98 182.04 29.96C181.49 29.96 181.5 29.63 181.5 29.25C181.5 27.61 181.49 25.97 181.49 24.34C181.49 21.9 181.49 19.46 181.49 17.01V17.03Z" fill="url(#paint4_linear_2_4)"/>
<path d="M271.68 8.44999V0.12999C271.83 -0.0700098 272.11 0.00999023 272.37 0.00999023C280.44 0.00999023 288.5 0.00999023 296.57 -0.0100098C297.02 -0.0100098 297.37 0.0799902 297.69 0.40999C298.83 1.57999 299.99 2.73999 301.16 3.87999C301.49 4.19999 301.59 4.54999 301.59 4.98999C301.59 13.06 301.59 21.12 301.59 29.19C301.59 29.68 301.52 29.97 300.95 30.01C298.51 30.2 296.07 29.95 293.63 29.93C293.18 29.93 293.1 29.66 293.1 29.29C293.1 28.4 293.08 27.5 293.08 26.61C293.06 20.96 293.04 15.3 293.05 9.64999C293.05 8.80999 292.76 8.59999 291.95 8.59999C285.31 8.59999 278.68 8.69999 272.04 8.50999C271.95 8.50999 271.87 8.47999 271.66 8.43999L271.68 8.44999Z" fill="url(#paint5_linear_2_4)"/>
<path d="M181.66 86.35C184.21 86.35 186.79 86.36 189.38 86.35C190.01 86.35 190 86.68 190 87.15C190 93.64 190.04 100.13 190.02 106.62C190.02 107.49 190.22 107.81 191.15 107.81C197.52 107.78 203.89 107.81 210.26 107.82C210.64 107.82 211.03 107.73 211.44 107.99C211.44 110.55 211.44 113.13 211.44 115.71C211.44 116.13 211.28 116.3 210.87 116.3C210.19 116.3 209.5 116.37 208.82 116.37C201.47 116.36 194.11 116.33 186.76 116.33C186.12 116.33 185.64 116.16 185.19 115.68C184.15 114.58 183.06 113.52 181.98 112.46C181.64 112.13 181.48 111.78 181.48 111.29C181.5 103.28 181.5 95.27 181.51 87.27C181.51 86.98 181.43 86.68 181.66 86.36V86.35Z" fill="url(#paint6_linear_2_4)"/>
<path d="M301.43 86.33C301.65 86.58 301.57 86.86 301.57 87.12C301.57 95.13 301.57 103.14 301.6 111.14C301.6 111.72 301.45 112.16 301.03 112.56C299.92 113.63 298.83 114.73 297.75 115.84C297.41 116.18 297.05 116.35 296.57 116.34C288.5 116.31 280.44 116.43 272.37 116.26C271.81 116.25 271.63 116.11 271.64 115.49C271.68 113.29 271.66 111.08 271.61 108.88C271.59 108.03 271.79 107.71 272.74 107.72C279.14 107.77 285.54 107.75 291.94 107.75C293.05 107.75 293.09 107.71 293.09 106.6C293.09 100.17 293.09 93.74 293.06 87.31C293.06 86.53 293.26 86.29 294.06 86.3C296.5 86.35 298.94 86.32 301.43 86.32V86.33Z" fill="url(#paint7_linear_2_4)"/>
</g>
<defs>
<linearGradient id="paint0_linear_2_4" x1="-31.632" y1="160.043" x2="352.804" y2="-14.8303" gradientUnits="userSpaceOnUse">
<stop stop-color="#49A4DC"/>
<stop offset="1" stop-color="#66C6E9"/>
</linearGradient>
<linearGradient id="paint1_linear_2_4" x1="-23.2853" y1="178.409" x2="361.16" y2="3.53937" gradientUnits="userSpaceOnUse">
<stop stop-color="#49A4DC"/>
<stop offset="1" stop-color="#66C6E9"/>
</linearGradient>
<linearGradient id="paint2_linear_2_4" x1="-11.7144" y1="203.846" x2="372.725" y2="28.9634" gradientUnits="userSpaceOnUse">
<stop stop-color="#49A4DC"/>
<stop offset="1" stop-color="#66C6E9"/>
</linearGradient>
<linearGradient id="paint3_linear_2_4" x1="-17.0047" y1="192.2" x2="367.431" y2="17.3261" gradientUnits="userSpaceOnUse">
<stop stop-color="#49A4DC"/>
<stop offset="1" stop-color="#66C6E9"/>
</linearGradient>
<linearGradient id="paint4_linear_2_4" x1="181.48" y1="15.05" x2="211.47" y2="15.05" gradientUnits="userSpaceOnUse">
<stop stop-color="#49A4DC"/>
<stop offset="1" stop-color="#66C6E9"/>
</linearGradient>
<linearGradient id="paint5_linear_2_4" x1="271.68" y1="15.05" x2="301.6" y2="15.05" gradientUnits="userSpaceOnUse">
<stop stop-color="#49A4DC"/>
<stop offset="1" stop-color="#66C6E9"/>
</linearGradient>
<linearGradient id="paint6_linear_2_4" x1="181.48" y1="101.36" x2="211.46" y2="101.36" gradientUnits="userSpaceOnUse">
<stop stop-color="#49A4DC"/>
<stop offset="1" stop-color="#66C6E9"/>
</linearGradient>
<linearGradient id="paint7_linear_2_4" x1="271.6" y1="101.34" x2="301.6" y2="101.34" gradientUnits="userSpaceOnUse">
<stop stop-color="#49A4DC"/>
<stop offset="1" stop-color="#66C6E9"/>
</linearGradient>
<clipPath id="clip0_2_4">
<rect width="311.68" height="116.37" fill="white"/>
</clipPath>
</defs>
</svg>
