<svg width="17" height="17" viewBox="0 0 17 17" fill="none" xmlns="http://www.w3.org/2000/svg">
<path d="M11.8971 10.2117C13.3071 11.6017 14.6971 12.9817 16.0871 14.3617C16.6471 14.9217 16.7471 15.5017 16.3971 16.0317C15.9371 16.7317 15.0671 16.7717 14.3871 16.1017C13.1271 14.8517 11.8671 13.6017 10.6271 12.3317C10.3271 12.0217 10.1071 11.9617 9.69709 12.1917C7.28709 13.5417 4.37709 13.2517 2.32709 11.5017C0.257094 9.74172 -0.522906 6.94172 0.357094 4.42172C1.24709 1.84172 3.58709 0.0617204 6.29709 0.00172042C8.76709 -0.0482796 10.7271 0.99172 12.0371 3.10172C13.3471 5.21172 13.3471 7.41172 12.2371 9.62172C12.1571 9.78172 12.0471 9.94172 11.8971 10.2117ZM6.52709 2.43172C4.26709 2.43172 2.44709 4.25172 2.44709 6.52172C2.44709 8.78172 4.27709 10.6117 6.53709 10.6017C8.77709 10.5917 10.6271 8.71172 10.6071 6.48172C10.5771 4.26172 8.73709 2.44172 6.53709 2.44172L6.52709 2.43172Z" fill="#4B69AF"/>
</svg>
