<svg width="89" height="34" viewBox="0 0 89 34" fill="none" xmlns="http://www.w3.org/2000/svg">
<path d="M36.9451 14.9383C36.2235 13.981 35.3595 13.5736 34.1028 13.5736C31.5256 13.5736 29.6749 15.5028 29.6749 18.1586C29.6749 20.8143 31.5109 22.6798 34.0537 22.6798C35.2957 22.6798 36.1106 22.3018 36.9451 21.3445V22.4736H38.8597V13.7748H36.9451V14.9383ZM34.3532 20.7652C32.8314 20.7652 31.776 19.7295 31.776 18.2077C31.776 16.6859 32.8265 15.493 34.2894 15.493C35.7523 15.493 36.8813 16.5926 36.8813 18.1635C36.8813 19.7344 35.8603 20.7702 34.3532 20.7702V20.7652Z" fill="#4B69AF"/>
<path d="M46.3998 17.9523C46.9987 17.7019 47.4208 17.0736 47.4208 16.4452C47.4208 14.7811 46.1985 13.7747 44.1416 13.7747H40.563V22.4735H44.6915C46.4194 22.4735 47.7056 21.2806 47.7056 19.6606C47.7056 18.9046 47.2049 18.2468 46.3998 17.9474V17.9523ZM42.6493 15.6745H44.1269C44.9614 15.6745 45.4327 15.9592 45.4327 16.4452C45.4327 16.9312 44.9614 17.2307 44.1269 17.2307H42.6493V15.6745ZM44.5491 20.5737H42.6493V18.7525H44.5491C45.1774 18.7525 45.5996 19.1157 45.5996 19.6655C45.5996 20.2153 45.1774 20.5786 44.5491 20.5786V20.5737Z" fill="#4B69AF"/>
<path d="M5.82697 16.2883C6.72041 16.0035 7.30458 15.1248 7.30458 14.0743C7.30458 12.1893 5.76806 10.6675 3.83392 10.6675C1.89978 10.6675 0.363265 12.1893 0.363265 14.0743H2.44959C2.44959 13.338 3.06321 12.7243 3.82901 12.7243C4.59482 12.7243 5.20844 13.338 5.20844 14.0743C5.20844 14.953 4.45245 15.4096 3.04357 15.4096V17.2946C4.77154 17.2946 5.49316 17.7806 5.49316 18.944C5.49316 19.8718 4.75681 20.6082 3.82901 20.6082C2.90121 20.6082 2.16486 19.8718 2.16486 18.944H0C0 21.0009 1.71324 22.6798 3.82901 22.6798C5.94479 22.6798 7.65803 21.0009 7.65803 18.944C7.65803 17.8297 6.84313 16.6515 5.82206 16.2883H5.82697Z" fill="#4B69AF"/>
<path d="M24.4615 13.5686C23.2833 13.5686 22.277 13.9907 21.6044 14.7909V13.7698H19.6899V25.3747H21.7763V21.6537C22.5912 22.3606 23.3913 22.6747 24.4468 22.6747C26.9602 22.6747 28.7961 20.7259 28.7961 18.0897C28.7961 15.4536 26.9749 13.5686 24.4615 13.5686ZM24.2111 20.7602C22.7679 20.7602 21.6535 19.6312 21.6535 18.1535C21.6535 16.6759 22.7384 15.4831 24.1522 15.4831C25.566 15.4831 26.6951 16.5974 26.6951 18.1388C26.6951 19.6802 25.6102 20.7602 24.216 20.7602H24.2111Z" fill="#4B69AF"/>
<path d="M14.4471 13.7747H12.6259L9.71977 20.5737H8.38452V24.5451H9.89158L10.3334 22.4735H16.7544L17.1962 24.5451H18.6885V20.5737H17.3532L14.4471 13.7747ZM11.8895 20.5737L13.539 16.6465L15.1884 20.5737H11.8895Z" fill="#4B69AF"/>
<path d="M54.9561 12.6802C56.3061 12.6802 57.2192 13.122 58.0046 14.1381H60.4051C59.3988 11.9095 57.3763 10.6037 54.9071 10.6037C51.6229 10.6037 48.9426 13.2889 48.9426 16.573C48.9426 19.8571 51.6573 22.616 55.0494 22.616C57.4352 22.616 59.4921 21.2955 60.4051 19.1748H57.877C56.9197 20.1664 56.1196 20.5395 55.0052 20.5395C52.8698 20.5395 51.1124 18.7673 51.1124 16.5828C51.1124 14.3983 52.7618 12.6753 54.9611 12.6753L54.9561 12.6802Z" fill="#4B69AF"/>
<path d="M69.4474 13.716H66.9242L63.9052 17.7217V13.716H61.8188V22.4147H63.9052V18.4139L66.9242 22.4147H69.6389L65.9817 18.0359L69.4474 13.716Z" fill="#4B69AF"/>
<path d="M86.9088 17.0787H83.0798V13.716H80.9885V22.4147H83.0798V18.9784H86.9088V22.4147H89V13.716H86.9088V17.0787Z" fill="#4B69AF"/>
<path d="M77.3804 14.8794C76.6588 13.9222 75.7948 13.5147 74.5381 13.5147C71.9609 13.5147 70.1102 15.444 70.1102 18.0997C70.1102 20.7555 71.9462 22.6209 74.489 22.6209C75.731 22.6209 76.5459 22.2429 77.3804 21.2857V22.4147H79.2949V13.716H77.3804V14.8794ZM74.7885 20.7064C73.2667 20.7064 72.2113 19.6706 72.2113 18.1488C72.2113 16.627 73.2618 15.4341 74.7247 15.4341C76.1876 15.4341 77.3166 16.5338 77.3166 18.1046C77.3166 19.6755 76.2956 20.7113 74.7885 20.7113V20.7064Z" fill="#4B69AF"/>
<path d="M51.8242 4.86498C51.8242 3.71628 51.8242 2.56757 51.8242 1.41887C51.8242 1.30105 51.8439 1.20778 51.9322 1.12433C52.266 0.800338 52.5998 0.466526 52.9238 0.132715C53.0171 0.0394441 53.1104 0.00508118 53.238 0.00508118C55.5354 0.00508118 57.8279 0.00508118 60.1253 0.00508118C60.3217 0.00508118 60.3855 0.0443531 60.3806 0.25544C60.3659 0.903427 60.3757 1.5465 60.3855 2.19449C60.3855 2.37121 60.3266 2.43012 60.1548 2.44485C59.4773 2.49885 58.795 2.47921 58.1126 2.47921C57.0081 2.47921 55.9036 2.47921 54.7942 2.47921C54.264 2.47921 54.264 2.47921 54.264 3.0192C54.264 4.6588 54.2738 6.30332 54.264 7.94292C54.2591 8.71363 54.3376 8.54182 53.6405 8.58109C53.0907 8.61054 52.536 8.56145 51.9862 8.55654C51.8291 8.55654 51.834 8.46327 51.8291 8.35527C51.8291 7.88892 51.8291 7.41766 51.8291 6.9513C51.8291 6.25423 51.8291 5.55715 51.8291 4.86007L51.8242 4.86498Z" fill="#4B69AF"/>
<path d="M77.5768 2.41052V0.03948C77.621 -0.0194279 77.6995 0.00511705 77.7732 0.00511705C80.0755 0.00511705 82.3778 0.00511705 84.685 0.000208057C84.8127 0.000208057 84.9157 0.024753 85.0041 0.118024C85.333 0.451835 85.6619 0.785647 85.9957 1.10964C86.089 1.20291 86.1184 1.30109 86.1184 1.42872C86.1184 3.73104 86.1184 6.03336 86.1184 8.34058C86.1184 8.47803 86.0988 8.56149 85.9368 8.57621C85.2397 8.63021 84.5427 8.55658 83.8456 8.55167C83.718 8.55167 83.6934 8.47313 83.6934 8.37004C83.6934 8.11477 83.6885 7.8595 83.6885 7.60423C83.6885 5.98918 83.6738 4.37412 83.6787 2.75906C83.6787 2.51852 83.5952 2.45961 83.3645 2.45961C81.4696 2.45961 79.5748 2.48907 77.6799 2.43507C77.6554 2.43507 77.6308 2.42525 77.5719 2.41543L77.5768 2.41052Z" fill="#4B69AF"/>
<path d="M51.8733 24.658C52.6047 24.658 53.3411 24.658 54.0774 24.658C54.2591 24.658 54.2541 24.7513 54.2541 24.8887C54.2541 26.7394 54.264 28.595 54.2591 30.4457C54.2591 30.696 54.318 30.7844 54.583 30.7844C56.4043 30.7746 58.2206 30.7844 60.0418 30.7844C60.1498 30.7844 60.2627 30.7599 60.3806 30.8335C60.3806 31.5649 60.3806 32.3013 60.3806 33.0376C60.3806 33.1554 60.3364 33.2045 60.2186 33.2045C60.0222 33.2045 59.8258 33.2242 59.6344 33.2242C57.5333 33.2242 55.4372 33.2144 53.3362 33.2144C53.1545 33.2144 53.0171 33.1653 52.8894 33.0278C52.59 32.7136 52.2807 32.4093 51.9715 32.1098C51.8733 32.0166 51.8291 31.9135 51.8291 31.776C51.834 29.4884 51.834 27.2008 51.8389 24.9182C51.8389 24.8347 51.8144 24.7463 51.8831 24.658H51.8733Z" fill="#4B69AF"/>
<path d="M86.0693 24.6531C86.1331 24.7267 86.1086 24.8052 86.1086 24.8789C86.1086 27.1665 86.1085 29.454 86.1184 31.7367C86.1184 31.9036 86.0742 32.0264 85.9564 32.1442C85.6373 32.4485 85.328 32.7627 85.0188 33.0818C84.9206 33.18 84.8175 33.2241 84.68 33.2241C82.3777 33.2143 80.0754 33.2487 77.7682 33.1996C77.6062 33.1996 77.5571 33.1554 77.5571 32.9787C77.5669 32.3503 77.562 31.722 77.5473 31.0936C77.5424 30.8482 77.6013 30.7598 77.8713 30.7598C79.6974 30.7746 81.5285 30.7697 83.3546 30.7697C83.6737 30.7697 83.6835 30.7549 83.6835 30.4408C83.6835 28.6048 83.6835 26.7688 83.6737 24.9329C83.6737 24.712 83.7277 24.6383 83.9584 24.6432C84.6555 24.658 85.3526 24.6481 86.0644 24.6481L86.0693 24.6531Z" fill="#4B69AF"/>
</svg>
