<svg width="174" height="174" viewBox="0 0 174 174" fill="none" xmlns="http://www.w3.org/2000/svg">
<path d="M0.0170047 24.6398C0.0170047 18.8412 0.0340095 13.0256 0 7.21C0 6.61483 0.102028 6.1387 0.544151 5.71358C2.24462 4.06412 3.91109 2.39766 5.57755 0.697187C6.05368 0.20405 6.52981 0.034003 7.17599 0.034003C18.8072 0.034003 30.4215 0.034003 42.0527 0.0169983C43.039 0.0169983 43.3621 0.20405 43.328 1.29235C43.243 4.55726 43.294 7.83917 43.3621 11.1041C43.3621 12.0053 43.056 12.2944 42.1887 12.3624C38.7538 12.6345 35.3018 12.5325 31.8669 12.5325C26.2723 12.5495 20.6777 12.5325 15.0662 12.5325C12.3964 12.5325 12.3794 12.5495 12.3794 15.2702C12.3794 23.5855 12.4135 31.9009 12.3624 40.1992C12.3284 44.0932 12.7365 43.243 9.19956 43.4301C6.41078 43.5831 3.605 43.345 0.816227 43.311C0.0340094 43.311 0.0340095 42.8349 0.0340095 42.2907C0.0340095 39.9271 0.0340095 37.5464 0.0170047 35.1828C0.0170047 31.6458 0.0170047 28.1258 0.0170047 24.5888V24.6398Z" fill="white"/>
<path d="M0.255071 130.341C3.9451 130.341 7.68614 130.358 11.4102 130.341C12.3114 130.341 12.3114 130.817 12.3114 131.498C12.3114 140.884 12.3624 150.271 12.3454 159.64C12.3454 160.899 12.6345 161.358 13.9779 161.358C23.1944 161.324 32.394 161.358 41.6106 161.375C42.1547 161.375 42.7329 161.239 43.328 161.613C43.328 165.303 43.328 169.044 43.328 172.785C43.328 173.397 43.09 173.635 42.4948 173.635C41.5085 173.635 40.5223 173.737 39.536 173.737C28.908 173.72 18.2801 173.686 7.63512 173.686C6.69986 173.686 6.01967 173.431 5.35649 172.751C3.84307 171.153 2.27863 169.622 0.714198 168.092C0.238066 167.616 0 167.105 0 166.391C0.0340095 154.811 0.0170047 143.231 0.0340095 131.651C0.0340095 131.243 -0.0850236 130.783 0.255071 130.341Z" fill="white"/>
<path d="M173.414 130.358C173.737 130.732 173.618 131.123 173.618 131.498C173.618 143.078 173.618 154.658 173.652 166.238C173.652 167.071 173.431 167.701 172.819 168.296C171.204 169.843 169.639 171.442 168.075 173.04C167.582 173.533 167.054 173.771 166.374 173.771C154.709 173.737 143.044 173.907 131.379 173.652C130.562 173.635 130.307 173.431 130.324 172.53C130.392 169.35 130.358 166.153 130.273 162.973C130.239 161.732 130.545 161.273 131.906 161.29C141.156 161.358 150.407 161.341 159.674 161.341C161.273 161.341 161.341 161.273 161.341 159.674C161.341 150.373 161.341 141.088 161.307 131.787C161.307 130.664 161.596 130.307 162.752 130.324C166.272 130.392 169.809 130.358 173.414 130.358Z" fill="white"/>
<path d="M130.409 12.2264V0.204057C130.63 -0.0850236 131.038 0.0340095 131.412 0.0340095C143.078 0.0340095 154.743 0.0340095 166.408 0C167.054 0 167.565 0.136038 168.024 0.61217C169.673 2.29564 171.34 3.97911 173.04 5.62856C173.516 6.08769 173.669 6.59783 173.669 7.24401C173.669 18.9093 173.669 30.5745 173.669 42.2397C173.669 42.9369 173.567 43.3621 172.734 43.4301C169.197 43.7021 165.677 43.345 162.157 43.311C161.494 43.311 161.392 42.9199 161.392 42.3758C161.392 41.0834 161.358 39.7911 161.358 38.4987C161.341 30.3194 161.29 22.1402 161.324 13.9779C161.324 12.7705 160.899 12.4645 159.742 12.4645C150.152 12.4645 140.544 12.6175 130.953 12.3284C130.834 12.3284 130.698 12.2774 130.409 12.2264Z" fill="white"/>
</svg>
